<svg xmlns="http://www.w3.org/2000/svg" xmlns:xlink="http://www.w3.org/1999/xlink" width="1080" zoomAndPan="magnify" viewBox="0 0 810 809.999993" height="1080" preserveAspectRatio="xMidYMid meet" version="1.0"><defs><clipPath id="bce50d50c4"><path d="M 371 611 L 568 611 L 568 729 L 371 729 Z M 371 611 " clip-rule="nonzero"/></clipPath><clipPath id="04f5ff881b"><path d="M 237 611 L 435 611 L 435 729 L 237 729 Z M 237 611 " clip-rule="nonzero"/></clipPath><clipPath id="751022141a"><path d="M 158.988281 81 L 650.988281 81 L 650.988281 715 L 158.988281 715 Z M 158.988281 81 " clip-rule="nonzero"/></clipPath><clipPath id="39a7aa5e0e"><path d="M 171 134 L 650.988281 134 L 650.988281 437 L 171 437 Z M 171 134 " clip-rule="nonzero"/></clipPath><clipPath id="ef481a2bb3"><path d="M 158.988281 316 L 318 316 L 318 666 L 158.988281 666 Z M 158.988281 316 " clip-rule="nonzero"/></clipPath><clipPath id="697e9fe3e9"><path d="M 496 316 L 650.988281 316 L 650.988281 664 L 496 664 Z M 496 316 " clip-rule="nonzero"/></clipPath></defs><path fill="#efca65" d="M 505.957031 654.679688 C 505.957031 654.679688 536.292969 670.4375 520.234375 690.949219 C 520.234375 690.949219 512.796875 704.328125 485.730469 687.085938 C 485.730469 687.085938 498.820312 717.707031 472.644531 722.167969 C 472.644531 722.167969 454.5 729.003906 450.039062 701.949219 C 450.039062 701.949219 442.902344 722.761719 425.949219 716.519531 C 416.199219 712.929688 414.121094 704.304688 414.117188 697.625 C 414.113281 693.628906 414.914062 689.675781 416.324219 685.941406 L 423.867188 665.976562 Z M 505.957031 654.679688 " fill-opacity="1" fill-rule="nonzero"/><g clip-path="url(#bce50d50c4)"><path stroke-linecap="butt" transform="matrix(0.414394, 0, 0, 0.414216, 101.42438, 37.880101)" fill="none" stroke-linejoin="miter" d="M 976.203786 1489.076203 C 976.203786 1489.076203 1049.40939 1527.11868 1010.657364 1576.638026 C 1010.657364 1576.638026 992.709454 1608.937352 927.393766 1567.311301 C 927.393766 1567.311301 958.981711 1641.236678 895.815248 1652.006263 C 895.815248 1652.006263 852.029511 1668.509569 841.264536 1603.194202 C 841.264536 1603.194202 824.04246 1653.439693 783.131783 1638.369818 C 759.60343 1629.703225 754.588573 1608.880769 754.579146 1592.754682 C 754.56972 1583.107321 756.502137 1573.563696 759.905075 1564.548176 L 778.107499 1516.349094 Z M 976.203786 1489.076203 " stroke="#000000" stroke-width="7.308" stroke-opacity="1" stroke-miterlimit="10"/></g><path fill="#efca65" d="M 299.421875 654.679688 C 299.421875 654.679688 269.082031 670.4375 285.144531 690.949219 C 285.144531 690.949219 292.582031 704.328125 319.648438 687.085938 C 319.648438 687.085938 306.558594 717.707031 332.734375 722.167969 C 332.734375 722.167969 350.875 729.003906 355.339844 701.949219 C 355.339844 701.949219 362.476562 722.761719 379.429688 716.519531 C 389.179688 712.929688 391.257812 704.304688 391.261719 697.625 C 391.265625 693.628906 390.464844 689.675781 389.054688 685.941406 L 381.511719 665.976562 Z M 299.421875 654.679688 " fill-opacity="1" fill-rule="nonzero"/><g clip-path="url(#04f5ff881b)"><path stroke-linecap="butt" transform="matrix(0.414394, 0, 0, 0.414216, 101.42438, 37.880101)" fill="none" stroke-linejoin="miter" d="M 477.800503 1489.076203 C 477.800503 1489.076203 404.585473 1527.11868 443.346926 1576.638026 C 443.346926 1576.638026 461.294836 1608.937352 526.610523 1567.311301 C 526.610523 1567.311301 495.022579 1641.236678 558.189042 1652.006263 C 558.189042 1652.006263 601.965352 1668.509569 612.739754 1603.194202 C 612.739754 1603.194202 629.961829 1653.439693 670.872507 1638.369818 C 694.400859 1629.703225 699.415717 1608.880769 699.425143 1592.754682 C 699.43457 1583.107321 697.502153 1573.563696 694.099214 1564.548176 L 675.89679 1516.349094 Z M 477.800503 1489.076203 " stroke="#000000" stroke-width="7.308" stroke-opacity="1" stroke-miterlimit="10"/></g><path fill="#b66d3d" d="M 302.246094 138.605469 C 302.246094 138.605469 392.480469 104.917969 516.417969 138.605469 C 516.417969 138.605469 552.660156 92.601562 587.085938 84.269531 C 587.085938 84.269531 639.269531 243.652344 644.34375 360.292969 C 649.417969 476.933594 617.164062 547.933594 617.164062 547.933594 C 617.164062 547.933594 578.957031 671.816406 408.53125 671.453125 C 238.101562 671.09375 203.675781 566.042969 203.675781 566.042969 C 203.675781 566.042969 159.828125 509.535156 171.421875 355.945312 C 171.421875 355.945312 189.179688 189.320312 234.480469 84.269531 C 234.480469 84.269531 257.671875 81.011719 302.246094 138.605469 Z M 302.246094 138.605469 " fill-opacity="1" fill-rule="nonzero"/><g clip-path="url(#751022141a)"><path stroke-linecap="butt" transform="matrix(0.414394, 0, 0, 0.414216, 101.42438, 37.880101)" fill="none" stroke-linejoin="miter" d="M 484.615807 243.170961 C 484.615807 243.170961 702.366187 161.842673 1001.447748 243.170961 C 1001.447748 243.170961 1088.906104 132.108432 1171.981173 111.99326 C 1171.981173 111.99326 1297.908763 496.774895 1310.153687 778.368435 C 1322.398611 1059.961975 1244.564633 1231.370019 1244.564633 1231.370019 C 1244.564633 1231.370019 1152.364786 1530.447632 741.099361 1529.570599 C 329.824509 1528.702997 246.74944 1275.089632 246.74944 1275.089632 C 246.74944 1275.089632 140.937837 1138.668596 168.915462 767.872333 C 168.915462 767.872333 211.767983 365.606625 321.086214 111.99326 C 321.086214 111.99326 377.05089 104.128256 484.615807 243.170961 Z M 484.615807 243.170961 " stroke="#000000" stroke-width="7.308" stroke-opacity="1" stroke-miterlimit="10"/></g><path fill="#f8c37a" d="M 503.550781 177.144531 C 465.78125 177.144531 432.53125 196.457031 413.121094 225.734375 C 393.707031 196.457031 360.457031 177.144531 322.6875 177.144531 C 262.808594 177.144531 214.269531 225.664062 214.269531 285.519531 C 214.269531 345.371094 262.808594 393.890625 322.6875 393.890625 C 360.457031 393.890625 393.707031 374.582031 413.121094 345.304688 C 432.53125 374.582031 465.78125 393.890625 503.550781 393.890625 C 563.429688 393.890625 611.96875 345.371094 611.96875 285.519531 C 611.96875 225.664062 563.429688 177.144531 503.550781 177.144531 Z M 503.550781 177.144531 " fill-opacity="1" fill-rule="nonzero"/><g clip-path="url(#39a7aa5e0e)"><path stroke-linecap="butt" transform="matrix(0.414394, 0, 0, 0.414216, 101.42438, 37.880101)" fill="none" stroke-linejoin="miter" d="M 970.397109 336.211881 C 879.253022 336.211881 799.015306 382.836076 752.175408 453.517374 C 705.326084 382.836076 625.088368 336.211881 533.944281 336.211881 C 389.446637 336.211881 272.3139 453.347626 272.3139 597.850567 C 272.3139 742.344077 389.446637 859.479823 533.944281 859.479823 C 625.088368 859.479823 705.326084 812.865058 752.175408 742.18376 C 799.015306 812.865058 879.253022 859.479823 970.397109 859.479823 C 1114.894753 859.479823 1232.02749 742.344077 1232.02749 597.850567 C 1232.02749 453.347626 1114.894753 336.211881 970.397109 336.211881 Z M 970.397109 336.211881 " stroke="#000000" stroke-width="7.308" stroke-opacity="1" stroke-miterlimit="10"/></g><path stroke-linecap="butt" transform="matrix(0.414394, 0, 0, 0.414216, 101.42438, 37.880101)" fill-opacity="1" fill="#4c291b" fill-rule="nonzero" stroke-linejoin="miter" d="M 1145.464644 604.291571 C 1145.464644 606.979252 1145.398659 609.666934 1145.266689 612.354615 C 1145.13472 615.032865 1144.936765 617.720547 1144.672825 620.389367 C 1144.408885 623.067617 1144.07896 625.736438 1143.68305 628.386397 C 1143.296567 631.045787 1142.834672 633.695746 1142.306793 636.336275 C 1141.788339 638.967373 1141.194475 641.589041 1140.544051 644.201279 C 1139.893628 646.804086 1139.17722 649.397462 1138.394827 651.962547 C 1137.612434 654.537063 1136.773482 657.092718 1135.868545 659.620081 C 1134.954182 662.147444 1133.992687 664.655947 1132.965207 667.136158 C 1131.937727 669.625799 1130.844262 672.077719 1129.694238 674.510778 C 1128.544214 676.934406 1127.337632 679.339173 1126.074492 681.706219 C 1124.801924 684.082695 1123.482225 686.412018 1122.096541 688.722481 C 1120.720283 691.023513 1119.27804 693.296254 1117.788665 695.531273 C 1116.289864 697.766292 1114.743931 699.96359 1113.141439 702.123165 C 1111.548373 704.28274 1109.889323 706.395163 1108.18314 708.479295 C 1106.486384 710.553996 1104.723643 712.590976 1102.923196 714.580803 C 1101.113322 716.57063 1099.265743 718.513305 1097.361606 720.418258 C 1095.466895 722.31378 1093.515625 724.171581 1091.52665 725.972799 C 1089.537674 727.783447 1087.501567 729.537513 1085.418327 731.244426 C 1083.344514 732.941909 1081.223569 734.60167 1079.064918 736.195417 C 1076.906267 737.798596 1074.709911 739.345191 1072.475848 740.844634 C 1070.241786 742.334647 1067.970018 743.768077 1065.669971 745.154355 C 1063.360497 746.531202 1061.022744 747.860897 1058.656712 749.124578 C 1056.281253 750.39769 1053.886941 751.604789 1051.454924 752.755305 C 1049.022907 753.896391 1046.572037 754.990324 1044.083461 756.018245 C 1041.604312 757.046165 1039.096883 758.008072 1036.561175 758.913396 C 1034.034894 759.828151 1031.480333 760.667461 1028.906919 761.45019 C 1026.342932 762.223487 1023.750666 762.940202 1021.139546 763.600335 C 1018.537854 764.251036 1015.917308 764.835725 1013.277909 765.363831 C 1010.638511 765.882506 1007.999112 766.344598 1005.340861 766.740678 C 1002.68261 767.136757 1000.014932 767.466823 997.337827 767.730876 C 994.660723 767.994929 991.983619 768.192969 989.297088 768.315565 C 986.610558 768.447591 983.924027 768.513604 981.237496 768.513604 C 978.550966 768.513604 975.864435 768.447591 973.177904 768.315565 C 970.5008 768.183538 967.814269 767.994929 965.146592 767.730876 C 962.469487 767.466823 959.80181 767.136757 957.143558 766.740678 C 954.485307 766.344598 951.836482 765.882506 949.197083 765.363831 C 946.567111 764.835725 943.946565 764.251036 941.335446 763.600335 C 938.733753 762.940202 936.141487 762.223487 933.568073 761.45019 C 930.99466 760.667461 928.449525 759.81872 925.913818 758.913396 C 923.387536 758.008072 920.880107 757.046165 918.391532 756.018245 C 915.912382 754.990324 913.452086 753.896391 911.029495 752.745875 C 908.597478 751.604789 906.19374 750.39769 903.827708 749.124578 C 901.452249 747.860897 899.114496 746.531202 896.814449 745.154355 C 894.504975 743.768077 892.233207 742.334647 889.999144 740.844634 C 887.765082 739.345191 885.568725 737.798596 883.410075 736.195417 C 881.251424 734.60167 879.130478 732.941909 877.056665 731.244426 C 874.982852 729.537513 872.946745 727.783447 870.957769 725.972799 C 868.959368 724.171581 867.017524 722.31378 865.113387 720.418258 C 863.218676 718.513305 861.36167 716.57063 859.561223 714.580803 C 857.75135 712.590976 855.998035 710.553996 854.291853 708.479295 C 852.58567 706.395163 850.936046 704.28274 849.333554 702.123165 C 847.731062 699.96359 846.185129 697.766292 844.695754 695.531273 C 843.196952 693.296254 841.764136 691.023513 840.378452 688.722481 C 839.002194 686.412018 837.673068 684.082695 836.409928 681.706219 C 835.13736 679.339173 833.930778 676.934406 832.780755 674.510778 C 831.630731 672.077719 830.546692 669.625799 829.519212 667.136158 C 828.491732 664.655947 827.52081 662.147444 826.615874 659.620081 C 825.710937 657.092718 824.871985 654.537063 824.089592 651.962547 C 823.307199 649.397462 822.590791 646.804086 821.940368 644.201279 C 821.280518 641.589041 820.69608 638.967373 820.1682 636.336275 C 819.649747 633.695746 819.187852 631.045787 818.791942 628.386397 C 818.396033 625.736438 818.066108 623.067617 817.802168 620.389367 C 817.547654 617.720547 817.3497 615.032865 817.21773 612.354615 C 817.08576 609.666934 817.019775 606.979252 817.019775 604.291571 C 817.019775 601.60389 817.08576 598.916209 817.21773 596.237958 C 817.3497 593.550277 817.547654 590.872027 817.802168 588.193776 C 818.066108 585.524956 818.396033 582.856135 818.791942 580.196746 C 819.187852 577.537356 819.649747 574.887397 820.1682 572.256298 C 820.69608 569.615769 821.280518 566.994101 821.940368 564.391294 C 822.590791 561.779057 823.307199 559.195111 824.089592 556.620595 C 824.871985 554.04608 825.710937 551.499855 826.615874 548.972492 C 827.52081 546.435698 828.491732 543.927196 829.519212 541.446985 C 830.546692 538.966774 831.630731 536.505424 832.780755 534.081796 C 833.930778 531.648737 835.13736 529.2534 836.409928 526.876924 C 837.673068 524.509878 839.002194 522.171124 840.378452 519.870092 C 841.764136 517.559629 843.196952 515.286888 844.695754 513.051869 C 846.185129 510.81685 847.731062 508.628984 849.333554 506.469408 C 850.936046 504.309833 852.58567 502.187979 854.291853 500.113278 C 855.998035 498.029146 857.75135 496.001597 859.561223 494.01177 C 861.36167 492.012513 863.218676 490.069838 865.113387 488.174316 C 867.017524 486.269363 868.959368 484.420992 870.957769 482.610344 C 872.946745 480.809126 874.982852 479.055061 877.056665 477.348147 C 879.130478 475.641234 881.251424 473.990903 883.410075 472.387725 C 885.568725 470.784547 887.765082 469.237952 889.999144 467.747939 C 892.233207 466.257926 894.504975 464.815066 896.814449 463.438219 C 899.114496 462.051941 901.452249 460.731676 903.827708 459.458564 C 906.19374 458.194883 908.597478 456.987784 911.029495 455.837268 C 913.452086 454.686752 915.912382 453.602249 918.391532 452.574328 C 920.880107 451.546408 923.387536 450.575071 925.913818 449.669747 C 928.449525 448.764423 930.99466 447.925112 933.568073 447.142383 C 936.141487 446.359655 938.733753 445.64294 941.335446 444.992238 C 943.946565 444.341537 946.567111 443.747418 949.197083 443.228742 C 951.836482 442.700637 954.485307 442.238544 957.143558 441.851895 C 959.80181 441.455816 962.469487 441.12575 965.146592 440.861697 C 967.814269 440.597644 970.5008 440.399604 973.177904 440.267578 C 975.864435 440.135552 978.550966 440.069538 981.237496 440.069538 C 983.924027 440.069538 986.610558 440.135552 989.297088 440.267578 C 991.983619 440.399604 994.660723 440.597644 997.337827 440.861697 C 1000.014932 441.12575 1002.68261 441.455816 1005.340861 441.851895 C 1007.999112 442.238544 1010.638511 442.700637 1013.277909 443.228742 C 1015.917308 443.747418 1018.537854 444.341537 1021.139546 444.992238 C 1023.750666 445.64294 1026.342932 446.359655 1028.906919 447.142383 C 1031.480333 447.925112 1034.034894 448.764423 1036.561175 449.669747 C 1039.096883 450.575071 1041.604312 451.546408 1044.083461 452.574328 C 1046.572037 453.602249 1049.022907 454.686752 1051.454924 455.837268 C 1053.886941 456.987784 1056.281253 458.194883 1058.656712 459.458564 C 1061.022744 460.731676 1063.360497 462.051941 1065.669971 463.438219 C 1067.970018 464.815066 1070.241786 466.257926 1072.475848 467.747939 C 1074.709911 469.237952 1076.906267 470.784547 1079.064918 472.387725 C 1081.223569 473.990903 1083.344514 475.641234 1085.418327 477.348147 C 1087.501567 479.055061 1089.537674 480.809126 1091.52665 482.610344 C 1093.515625 484.420992 1095.466895 486.269363 1097.361606 488.174316 C 1099.265743 490.069838 1101.113322 492.012513 1102.923196 494.01177 C 1104.723643 496.001597 1106.486384 498.029146 1108.18314 500.113278 C 1109.889323 502.187979 1111.548373 504.309833 1113.141439 506.469408 C 1114.743931 508.628984 1116.289864 510.81685 1117.788665 513.051869 C 1119.27804 515.286888 1120.720283 517.559629 1122.096541 519.870092 C 1123.482225 522.171124 1124.801924 524.509878 1126.074492 526.876924 C 1127.337632 529.2534 1128.544214 531.648737 1129.694238 534.081796 C 1130.844262 536.505424 1131.937727 538.966774 1132.965207 541.446985 C 1133.992687 543.927196 1134.954182 546.435698 1135.868545 548.972492 C 1136.773482 551.499855 1137.612434 554.04608 1138.394827 556.620595 C 1139.17722 559.195111 1139.893628 561.779057 1140.544051 564.391294 C 1141.194475 566.994101 1141.788339 569.615769 1142.306793 572.256298 C 1142.834672 574.887397 1143.296567 577.537356 1143.68305 580.196746 C 1144.07896 582.856135 1144.408885 585.524956 1144.672825 588.193776 C 1144.936765 590.872027 1145.13472 593.550277 1145.266689 596.237958 C 1145.398659 598.916209 1145.464644 601.60389 1145.464644 604.291571 Z M 1145.464644 604.291571 " stroke="#000000" stroke-width="7.308" stroke-opacity="1" stroke-miterlimit="10"/><path fill="#ffffff" d="M 522.507812 262.898438 C 522.507812 263.859375 522.460938 264.816406 522.367188 265.773438 C 522.273438 266.730469 522.132812 267.679688 521.945312 268.621094 C 521.757812 269.5625 521.523438 270.496094 521.246094 271.414062 C 520.964844 272.332031 520.644531 273.234375 520.273438 274.125 C 519.90625 275.011719 519.496094 275.878906 519.042969 276.726562 C 518.589844 277.574219 518.097656 278.394531 517.5625 279.195312 C 517.03125 279.992188 516.457031 280.765625 515.847656 281.507812 C 515.238281 282.25 514.59375 282.960938 513.914062 283.640625 C 513.234375 284.320312 512.523438 284.964844 511.78125 285.574219 C 511.039062 286.183594 510.265625 286.753906 509.46875 287.289062 C 508.667969 287.820312 507.84375 288.316406 506.996094 288.765625 C 506.148438 289.21875 505.28125 289.628906 504.394531 290 C 503.507812 290.367188 502.601562 290.6875 501.683594 290.96875 C 500.761719 291.246094 499.832031 291.480469 498.890625 291.667969 C 497.945312 291.855469 496.996094 291.996094 496.039062 292.089844 C 495.085938 292.183594 494.125 292.230469 493.164062 292.230469 C 492.203125 292.230469 491.246094 292.183594 490.289062 292.089844 C 489.332031 291.996094 488.382812 291.855469 487.441406 291.667969 C 486.496094 291.480469 485.566406 291.246094 484.644531 290.96875 C 483.726562 290.6875 482.824219 290.367188 481.933594 290 C 481.046875 289.628906 480.179688 289.21875 479.332031 288.765625 C 478.484375 288.316406 477.660156 287.820312 476.863281 287.289062 C 476.0625 286.753906 475.292969 286.183594 474.546875 285.574219 C 473.804688 284.964844 473.09375 284.320312 472.414062 283.640625 C 471.734375 282.960938 471.089844 282.25 470.480469 281.507812 C 469.871094 280.765625 469.300781 279.992188 468.765625 279.195312 C 468.230469 278.394531 467.738281 277.574219 467.285156 276.726562 C 466.832031 275.878906 466.421875 275.011719 466.054688 274.125 C 465.6875 273.234375 465.363281 272.332031 465.082031 271.414062 C 464.804688 270.496094 464.570312 269.5625 464.382812 268.621094 C 464.195312 267.679688 464.054688 266.730469 463.960938 265.773438 C 463.867188 264.816406 463.820312 263.859375 463.820312 262.898438 C 463.820312 261.9375 463.867188 260.980469 463.960938 260.023438 C 464.054688 259.066406 464.195312 258.117188 464.382812 257.175781 C 464.570312 256.234375 464.804688 255.304688 465.082031 254.382812 C 465.363281 253.464844 465.6875 252.5625 466.054688 251.675781 C 466.421875 250.785156 466.832031 249.917969 467.285156 249.070312 C 467.738281 248.226562 468.230469 247.402344 468.765625 246.601562 C 469.300781 245.804688 469.871094 245.035156 470.480469 244.289062 C 471.089844 243.546875 471.734375 242.835938 472.414062 242.15625 C 473.09375 241.480469 473.804688 240.835938 474.546875 240.226562 C 475.292969 239.617188 476.0625 239.042969 476.863281 238.511719 C 477.660156 237.976562 478.484375 237.484375 479.332031 237.03125 C 480.179688 236.578125 481.046875 236.167969 481.933594 235.800781 C 482.824219 235.433594 483.726562 235.109375 484.644531 234.828125 C 485.566406 234.550781 486.496094 234.316406 487.441406 234.128906 C 488.382812 233.941406 489.332031 233.800781 490.289062 233.707031 C 491.246094 233.613281 492.203125 233.566406 493.164062 233.566406 C 494.125 233.566406 495.085938 233.613281 496.039062 233.707031 C 496.996094 233.800781 497.945312 233.941406 498.890625 234.128906 C 499.832031 234.316406 500.761719 234.550781 501.683594 234.828125 C 502.601562 235.109375 503.507812 235.433594 504.394531 235.800781 C 505.28125 236.167969 506.148438 236.578125 506.996094 237.03125 C 507.84375 237.484375 508.667969 237.976562 509.46875 238.511719 C 510.265625 239.042969 511.039062 239.617188 511.78125 240.226562 C 512.523438 240.835938 513.234375 241.480469 513.914062 242.15625 C 514.59375 242.835938 515.238281 243.546875 515.847656 244.289062 C 516.457031 245.035156 517.03125 245.804688 517.5625 246.601562 C 518.097656 247.402344 518.589844 248.226562 519.042969 249.070312 C 519.496094 249.917969 519.90625 250.785156 520.273438 251.675781 C 520.644531 252.5625 520.964844 253.464844 521.246094 254.382812 C 521.523438 255.304688 521.757812 256.234375 521.945312 257.175781 C 522.132812 258.117188 522.273438 259.066406 522.367188 260.023438 C 522.460938 260.980469 522.507812 261.9375 522.507812 262.898438 Z M 522.507812 262.898438 " fill-opacity="1" fill-rule="nonzero"/><path fill="#ffffff" d="M 552.257812 322.109375 C 552.257812 322.644531 552.230469 323.175781 552.175781 323.707031 C 552.125 324.234375 552.046875 324.761719 551.941406 325.285156 C 551.839844 325.808594 551.710938 326.324219 551.554688 326.835938 C 551.398438 327.34375 551.21875 327.847656 551.015625 328.339844 C 550.8125 328.832031 550.585938 329.3125 550.332031 329.78125 C 550.082031 330.253906 549.808594 330.710938 549.511719 331.152344 C 549.214844 331.597656 548.898438 332.023438 548.558594 332.4375 C 548.222656 332.847656 547.863281 333.242188 547.488281 333.621094 C 547.109375 333.996094 546.714844 334.355469 546.300781 334.691406 C 545.890625 335.03125 545.460938 335.347656 545.019531 335.644531 C 544.574219 335.941406 544.117188 336.214844 543.648438 336.464844 C 543.179688 336.714844 542.695312 336.945312 542.203125 337.148438 C 541.710938 337.351562 541.210938 337.53125 540.699219 337.6875 C 540.1875 337.839844 539.671875 337.96875 539.148438 338.074219 C 538.625 338.179688 538.097656 338.257812 537.570312 338.308594 C 537.039062 338.359375 536.503906 338.386719 535.972656 338.386719 C 535.4375 338.386719 534.90625 338.359375 534.375 338.308594 C 533.84375 338.257812 533.320312 338.179688 532.796875 338.074219 C 532.273438 337.96875 531.757812 337.839844 531.246094 337.6875 C 530.734375 337.53125 530.234375 337.351562 529.742188 337.148438 C 529.25 336.945312 528.765625 336.714844 528.296875 336.464844 C 527.824219 336.214844 527.371094 335.941406 526.925781 335.644531 C 526.480469 335.347656 526.054688 335.03125 525.640625 334.691406 C 525.230469 334.355469 524.835938 333.996094 524.457031 333.621094 C 524.082031 333.242188 523.722656 332.847656 523.386719 332.4375 C 523.046875 332.023438 522.730469 331.597656 522.433594 331.152344 C 522.136719 330.710938 521.863281 330.253906 521.613281 329.78125 C 521.359375 329.3125 521.132812 328.832031 520.929688 328.339844 C 520.722656 327.847656 520.542969 327.34375 520.390625 326.835938 C 520.234375 326.324219 520.105469 325.808594 520 325.285156 C 519.898438 324.761719 519.820312 324.234375 519.765625 323.707031 C 519.714844 323.175781 519.6875 322.644531 519.6875 322.109375 C 519.6875 321.578125 519.714844 321.046875 519.765625 320.515625 C 519.820312 319.984375 519.898438 319.457031 520 318.933594 C 520.105469 318.410156 520.234375 317.894531 520.390625 317.386719 C 520.542969 316.875 520.722656 316.375 520.929688 315.882812 C 521.132812 315.390625 521.359375 314.90625 521.613281 314.4375 C 521.863281 313.96875 522.136719 313.511719 522.433594 313.066406 C 522.730469 312.625 523.046875 312.195312 523.386719 311.785156 C 523.722656 311.371094 524.082031 310.976562 524.457031 310.601562 C 524.835938 310.222656 525.230469 309.867188 525.640625 309.527344 C 526.054688 309.191406 526.480469 308.871094 526.925781 308.578125 C 527.371094 308.28125 527.824219 308.007812 528.296875 307.753906 C 528.765625 307.503906 529.25 307.277344 529.742188 307.074219 C 530.234375 306.867188 530.734375 306.6875 531.246094 306.535156 C 531.757812 306.378906 532.273438 306.25 532.796875 306.144531 C 533.320312 306.042969 533.84375 305.964844 534.375 305.910156 C 534.90625 305.859375 535.4375 305.832031 535.972656 305.832031 C 536.503906 305.832031 537.039062 305.859375 537.570312 305.910156 C 538.097656 305.964844 538.625 306.042969 539.148438 306.144531 C 539.671875 306.25 540.1875 306.378906 540.699219 306.535156 C 541.210938 306.6875 541.710938 306.867188 542.203125 307.074219 C 542.695312 307.277344 543.179688 307.503906 543.648438 307.753906 C 544.117188 308.007812 544.574219 308.28125 545.019531 308.578125 C 545.460938 308.871094 545.890625 309.191406 546.300781 309.527344 C 546.714844 309.867188 547.109375 310.222656 547.488281 310.601562 C 547.863281 310.976562 548.222656 311.371094 548.558594 311.785156 C 548.898438 312.195312 549.214844 312.625 549.511719 313.066406 C 549.808594 313.511719 550.082031 313.96875 550.332031 314.4375 C 550.585938 314.90625 550.8125 315.390625 551.015625 315.882812 C 551.21875 316.375 551.398438 316.875 551.554688 317.386719 C 551.710938 317.894531 551.839844 318.410156 551.941406 318.933594 C 552.046875 319.457031 552.125 319.984375 552.175781 320.515625 C 552.230469 321.046875 552.257812 321.578125 552.257812 322.109375 Z M 552.257812 322.109375 " fill-opacity="1" fill-rule="nonzero"/><path stroke-linecap="butt" transform="matrix(0.414394, 0, 0, 0.414216, 101.42438, 37.880101)" fill-opacity="1" fill="#4c291b" fill-rule="nonzero" stroke-linejoin="miter" d="M 702.262497 604.291571 C 702.262497 606.979252 702.196512 609.666934 702.064542 612.354615 C 701.932572 615.032865 701.734617 617.720547 701.470677 620.389367 C 701.206737 623.067617 700.876812 625.736438 700.480903 628.386397 C 700.084993 631.045787 699.632524 633.695746 699.104645 636.336275 C 698.576765 638.967373 697.992327 641.589041 697.341904 644.201279 C 696.682054 646.804086 695.965646 649.397462 695.192679 651.962547 C 694.410286 654.537063 693.561908 657.092718 692.656971 659.620081 C 691.752034 662.147444 690.790539 664.655947 689.763059 667.136158 C 688.726153 669.625799 687.642114 672.077719 686.49209 674.510778 C 685.342067 676.934406 684.135484 679.339173 682.872344 681.706219 C 681.599776 684.082695 680.280077 686.412018 678.894393 688.722481 C 677.518135 691.023513 676.075892 693.296254 674.586517 695.531273 C 673.087716 697.766292 671.541783 699.96359 669.939291 702.123165 C 668.336799 704.28274 666.687175 706.395163 664.980992 708.479295 C 663.274809 710.553996 661.521495 712.590976 659.721048 714.580803 C 657.911175 716.57063 656.063596 718.513305 654.159458 720.418258 C 652.255321 722.31378 650.313477 724.171581 648.324502 725.972799 C 646.3261 727.783447 644.299419 729.537513 642.21618 731.244426 C 640.142366 732.941909 638.021421 734.60167 635.86277 736.195417 C 633.704119 737.798596 631.507763 739.345191 629.2737 740.844634 C 627.039638 742.334647 624.76787 743.768077 622.467823 745.154355 C 620.158349 746.531202 617.820596 747.860897 615.454564 749.124578 C 613.079105 750.39769 610.684793 751.604789 608.252776 752.755305 C 605.820759 753.896391 603.360462 754.990324 600.881313 756.018245 C 598.402164 757.046165 595.894735 758.008072 593.359027 758.913396 C 590.832746 759.828151 588.278185 760.667461 585.704771 761.45019 C 583.131358 762.223487 580.548518 762.940202 577.937399 763.600335 C 575.335706 764.251036 572.71516 764.835725 570.075762 765.363831 C 567.436363 765.882506 564.787538 766.344598 562.129287 766.740678 C 559.471035 767.136757 556.803357 767.466823 554.13568 767.730876 C 551.458575 767.994929 548.781471 768.192969 546.09494 768.315565 C 543.40841 768.447591 540.721879 768.513604 538.035348 768.513604 C 535.348818 768.513604 532.662287 768.447591 529.975756 768.315565 C 527.289226 768.183538 524.612122 767.994929 521.935017 767.730876 C 519.26734 767.466823 516.599662 767.136757 513.94141 766.740678 C 511.283159 766.344598 508.634334 765.882506 505.994935 765.363831 C 503.364963 764.835725 500.744418 764.251036 498.133298 763.600335 C 495.522179 762.940202 492.939339 762.223487 490.365925 761.45019 C 487.792512 760.667461 485.237951 759.81872 482.71167 758.913396 C 480.175962 758.008072 477.67796 757.046165 475.189384 756.018245 C 472.710234 754.990324 470.249938 753.896391 467.817921 752.745875 C 465.39533 751.604789 462.991592 750.39769 460.62556 749.124578 C 458.250101 747.860897 455.912348 746.531202 453.612301 745.154355 C 451.302827 743.768077 449.031059 742.334647 446.796997 740.844634 C 444.562934 739.345191 442.366578 737.798596 440.207927 736.195417 C 438.049276 734.60167 435.92833 732.941909 433.854517 731.244426 C 431.771278 729.537513 429.744597 727.783447 427.746195 725.972799 C 425.75722 724.171581 423.815376 722.31378 421.911239 720.418258 C 420.007101 718.513305 418.159522 716.57063 416.349649 714.580803 C 414.549202 712.590976 412.795888 710.553996 411.089705 708.479295 C 409.383522 706.395163 407.733898 704.28274 406.131406 702.123165 C 404.528914 699.96359 402.982981 697.766292 401.484179 695.531273 C 399.994805 693.296254 398.561988 691.023513 397.176304 688.722481 C 395.79062 686.412018 394.47092 684.082695 393.20778 681.706219 C 391.935213 679.339173 390.72863 676.934406 389.578607 674.510778 C 388.428583 672.077719 387.344544 669.625799 386.317064 667.136158 C 385.280158 664.655947 384.318662 662.147444 383.413726 659.620081 C 382.508789 657.092718 381.660411 654.537063 380.887444 651.962547 C 380.105051 649.397462 379.388643 646.804086 378.73822 644.201279 C 378.07837 641.589041 377.493932 638.967373 376.966052 636.336275 C 376.447599 633.695746 375.985704 631.045787 375.589794 628.386397 C 375.193885 625.736438 374.86396 623.067617 374.60002 620.389367 C 374.33608 617.720547 374.138125 615.032865 374.006155 612.354615 C 373.874185 609.666934 373.8082 606.979252 373.8082 604.291571 C 373.8082 601.60389 373.874185 598.916209 374.006155 596.237958 C 374.138125 593.550277 374.33608 590.872027 374.60002 588.193776 C 374.86396 585.524956 375.193885 582.856135 375.589794 580.196746 C 375.985704 577.537356 376.447599 574.887397 376.966052 572.256298 C 377.493932 569.615769 378.07837 566.994101 378.73822 564.391294 C 379.388643 561.779057 380.105051 559.195111 380.887444 556.620595 C 381.660411 554.04608 382.508789 551.499855 383.413726 548.972492 C 384.318662 546.435698 385.280158 543.927196 386.317064 541.446985 C 387.344544 538.966774 388.428583 536.505424 389.578607 534.081796 C 390.72863 531.648737 391.935213 529.2534 393.20778 526.876924 C 394.47092 524.509878 395.79062 522.171124 397.176304 519.870092 C 398.561988 517.559629 399.994805 515.286888 401.484179 513.051869 C 402.982981 510.81685 404.528914 508.628984 406.131406 506.469408 C 407.733898 504.309833 409.383522 502.187979 411.089705 500.113278 C 412.795888 498.029146 414.549202 496.001597 416.349649 494.01177 C 418.159522 492.012513 420.007101 490.069838 421.911239 488.174316 C 423.815376 486.269363 425.75722 484.420992 427.746195 482.610344 C 429.744597 480.809126 431.771278 479.055061 433.854517 477.348147 C 435.92833 475.641234 438.049276 473.990903 440.207927 472.387725 C 442.366578 470.784547 444.562934 469.237952 446.796997 467.747939 C 449.031059 466.257926 451.302827 464.815066 453.612301 463.438219 C 455.912348 462.051941 458.250101 460.731676 460.62556 459.458564 C 462.991592 458.194883 465.39533 456.987784 467.817921 455.837268 C 470.249938 454.686752 472.710234 453.602249 475.189384 452.574328 C 477.668533 451.546408 480.175962 450.575071 482.71167 449.669747 C 485.237951 448.764423 487.792512 447.925112 490.365925 447.142383 C 492.939339 446.359655 495.522179 445.64294 498.133298 444.992238 C 500.744418 444.341537 503.364963 443.747418 505.994935 443.228742 C 508.634334 442.700637 511.283159 442.238544 513.94141 441.851895 C 516.599662 441.455816 519.26734 441.12575 521.935017 440.861697 C 524.612122 440.597644 527.289226 440.399604 529.975756 440.267578 C 532.662287 440.135552 535.348818 440.069538 538.035348 440.069538 C 540.721879 440.069538 543.40841 440.135552 546.09494 440.267578 C 548.781471 440.399604 551.458575 440.597644 554.13568 440.861697 C 556.803357 441.12575 559.471035 441.455816 562.129287 441.851895 C 564.787538 442.238544 567.436363 442.700637 570.075762 443.228742 C 572.71516 443.747418 575.335706 444.341537 577.937399 444.992238 C 580.548518 445.64294 583.131358 446.359655 585.704771 447.142383 C 588.278185 447.925112 590.832746 448.764423 593.359027 449.669747 C 595.894735 450.575071 598.402164 451.546408 600.881313 452.574328 C 603.360462 453.602249 605.820759 454.686752 608.252776 455.837268 C 610.684793 456.987784 613.079105 458.194883 615.454564 459.458564 C 617.820596 460.731676 620.158349 462.051941 622.467823 463.438219 C 624.76787 464.815066 627.039638 466.257926 629.2737 467.747939 C 631.507763 469.237952 633.704119 470.784547 635.86277 472.387725 C 638.021421 473.990903 640.142366 475.641234 642.21618 477.348147 C 644.299419 479.055061 646.3261 480.809126 648.324502 482.610344 C 650.313477 484.420992 652.255321 486.269363 654.159458 488.174316 C 656.063596 490.069838 657.911175 492.012513 659.721048 494.01177 C 661.521495 496.001597 663.274809 498.029146 664.980992 500.113278 C 666.687175 502.187979 668.336799 504.309833 669.939291 506.469408 C 671.541783 508.628984 673.087716 510.81685 674.586517 513.051869 C 676.075892 515.286888 677.518135 517.559629 678.894393 519.870092 C 680.280077 522.171124 681.599776 524.509878 682.872344 526.876924 C 684.135484 529.2534 685.342067 531.648737 686.49209 534.081796 C 687.642114 536.505424 688.726153 538.966774 689.763059 541.446985 C 690.790539 543.927196 691.752034 546.435698 692.656971 548.972492 C 693.561908 551.499855 694.410286 554.04608 695.192679 556.620595 C 695.965646 559.195111 696.682054 561.779057 697.341904 564.391294 C 697.992327 566.994101 698.576765 569.615769 699.104645 572.256298 C 699.632524 574.887397 700.084993 577.537356 700.480903 580.196746 C 700.876812 582.856135 701.206737 585.524956 701.470677 588.193776 C 701.734617 590.872027 701.932572 593.550277 702.064542 596.237958 C 702.196512 598.916209 702.262497 601.60389 702.262497 604.291571 Z M 702.262497 604.291571 " stroke="#000000" stroke-width="7.308" stroke-opacity="1" stroke-miterlimit="10"/><path fill="#ffffff" d="M 338.847656 262.898438 C 338.847656 263.859375 338.800781 264.816406 338.707031 265.773438 C 338.613281 266.730469 338.472656 267.679688 338.285156 268.621094 C 338.097656 269.5625 337.863281 270.496094 337.585938 271.414062 C 337.304688 272.332031 336.980469 273.234375 336.613281 274.125 C 336.246094 275.011719 335.835938 275.878906 335.382812 276.726562 C 334.929688 277.574219 334.4375 278.394531 333.902344 279.195312 C 333.367188 279.992188 332.796875 280.765625 332.1875 281.507812 C 331.578125 282.25 330.933594 282.960938 330.253906 283.640625 C 329.574219 284.320312 328.863281 284.964844 328.121094 285.574219 C 327.375 286.183594 326.605469 286.753906 325.804688 287.289062 C 325.007812 287.820312 324.183594 288.316406 323.335938 288.765625 C 322.488281 289.21875 321.621094 289.628906 320.734375 290 C 319.84375 290.367188 318.941406 290.6875 318.023438 290.96875 C 317.101562 291.246094 316.171875 291.480469 315.226562 291.667969 C 314.285156 291.855469 313.335938 291.996094 312.378906 292.089844 C 311.421875 292.183594 310.464844 292.230469 309.503906 292.230469 C 308.542969 292.230469 307.582031 292.183594 306.628906 292.089844 C 305.671875 291.996094 304.722656 291.855469 303.777344 291.667969 C 302.835938 291.480469 301.90625 291.246094 300.984375 290.96875 C 300.066406 290.6875 299.160156 290.367188 298.273438 290 C 297.386719 289.628906 296.519531 289.21875 295.671875 288.765625 C 294.824219 288.316406 294 287.820312 293.199219 287.289062 C 292.402344 286.753906 291.628906 286.183594 290.886719 285.574219 C 290.144531 284.964844 289.433594 284.320312 288.753906 283.640625 C 288.074219 282.960938 287.429688 282.25 286.820312 281.507812 C 286.210938 280.765625 285.636719 279.992188 285.105469 279.195312 C 284.570312 278.394531 284.078125 277.574219 283.625 276.726562 C 283.171875 275.878906 282.761719 275.011719 282.394531 274.125 C 282.023438 273.234375 281.703125 272.332031 281.421875 271.414062 C 281.144531 270.496094 280.910156 269.5625 280.722656 268.621094 C 280.535156 267.679688 280.394531 266.730469 280.300781 265.773438 C 280.207031 264.816406 280.160156 263.859375 280.160156 262.898438 C 280.160156 261.9375 280.207031 260.980469 280.300781 260.023438 C 280.394531 259.066406 280.535156 258.117188 280.722656 257.175781 C 280.910156 256.234375 281.144531 255.304688 281.421875 254.382812 C 281.703125 253.464844 282.023438 252.5625 282.394531 251.675781 C 282.761719 250.785156 283.171875 249.917969 283.625 249.070312 C 284.078125 248.226562 284.570312 247.402344 285.105469 246.601562 C 285.636719 245.804688 286.210938 245.035156 286.820312 244.289062 C 287.429688 243.546875 288.074219 242.835938 288.753906 242.15625 C 289.433594 241.480469 290.144531 240.835938 290.886719 240.226562 C 291.628906 239.617188 292.402344 239.042969 293.199219 238.511719 C 294 237.976562 294.824219 237.484375 295.671875 237.03125 C 296.519531 236.578125 297.386719 236.167969 298.273438 235.800781 C 299.160156 235.433594 300.066406 235.109375 300.984375 234.828125 C 301.90625 234.550781 302.835938 234.316406 303.777344 234.128906 C 304.722656 233.941406 305.671875 233.800781 306.628906 233.707031 C 307.582031 233.613281 308.542969 233.566406 309.503906 233.566406 C 310.464844 233.566406 311.421875 233.613281 312.378906 233.707031 C 313.335938 233.800781 314.285156 233.941406 315.226562 234.128906 C 316.171875 234.316406 317.101562 234.550781 318.023438 234.828125 C 318.941406 235.109375 319.84375 235.433594 320.734375 235.800781 C 321.621094 236.167969 322.488281 236.578125 323.335938 237.03125 C 324.183594 237.484375 325.007812 237.976562 325.804688 238.511719 C 326.605469 239.042969 327.375 239.617188 328.121094 240.226562 C 328.863281 240.835938 329.574219 241.480469 330.253906 242.15625 C 330.933594 242.835938 331.578125 243.546875 332.1875 244.289062 C 332.796875 245.035156 333.367188 245.804688 333.902344 246.601562 C 334.4375 247.402344 334.929688 248.226562 335.382812 249.070312 C 335.835938 249.917969 336.246094 250.785156 336.613281 251.675781 C 336.980469 252.5625 337.304688 253.464844 337.585938 254.382812 C 337.863281 255.304688 338.097656 256.234375 338.285156 257.175781 C 338.472656 258.117188 338.613281 259.066406 338.707031 260.023438 C 338.800781 260.980469 338.847656 261.9375 338.847656 262.898438 Z M 338.847656 262.898438 " fill-opacity="1" fill-rule="nonzero"/><path fill="#ffffff" d="M 368.59375 322.109375 C 368.59375 322.644531 368.570312 323.175781 368.515625 323.707031 C 368.464844 324.234375 368.386719 324.761719 368.28125 325.285156 C 368.179688 325.808594 368.046875 326.324219 367.894531 326.835938 C 367.738281 327.34375 367.558594 327.847656 367.355469 328.339844 C 367.152344 328.832031 366.921875 329.3125 366.671875 329.78125 C 366.421875 330.253906 366.148438 330.710938 365.851562 331.152344 C 365.554688 331.597656 365.238281 332.023438 364.898438 332.4375 C 364.5625 332.847656 364.203125 333.242188 363.824219 333.621094 C 363.449219 333.996094 363.054688 334.355469 362.640625 334.691406 C 362.230469 335.03125 361.800781 335.347656 361.359375 335.644531 C 360.914062 335.941406 360.457031 336.214844 359.988281 336.464844 C 359.515625 336.714844 359.035156 336.945312 358.542969 337.148438 C 358.050781 337.351562 357.546875 337.53125 357.039062 337.6875 C 356.527344 337.839844 356.011719 337.96875 355.488281 338.074219 C 354.964844 338.179688 354.4375 338.257812 353.90625 338.308594 C 353.375 338.359375 352.84375 338.386719 352.3125 338.386719 C 351.777344 338.386719 351.246094 338.359375 350.714844 338.308594 C 350.183594 338.257812 349.65625 338.179688 349.136719 338.074219 C 348.613281 337.96875 348.09375 337.839844 347.585938 337.6875 C 347.074219 337.53125 346.574219 337.351562 346.082031 337.148438 C 345.585938 336.945312 345.105469 336.714844 344.636719 336.464844 C 344.164062 336.214844 343.707031 335.941406 343.265625 335.644531 C 342.820312 335.347656 342.394531 335.03125 341.980469 334.691406 C 341.570312 334.355469 341.175781 333.996094 340.796875 333.621094 C 340.421875 333.242188 340.0625 332.847656 339.722656 332.4375 C 339.386719 332.023438 339.070312 331.597656 338.773438 331.152344 C 338.476562 330.710938 338.203125 330.253906 337.949219 329.78125 C 337.699219 329.3125 337.472656 328.832031 337.265625 328.339844 C 337.0625 327.847656 336.882812 327.34375 336.730469 326.835938 C 336.574219 326.324219 336.445312 325.808594 336.339844 325.285156 C 336.238281 324.761719 336.160156 324.234375 336.105469 323.707031 C 336.054688 323.175781 336.027344 322.644531 336.027344 322.109375 C 336.027344 321.578125 336.054688 321.046875 336.105469 320.515625 C 336.160156 319.984375 336.238281 319.457031 336.339844 318.933594 C 336.445312 318.410156 336.574219 317.894531 336.730469 317.386719 C 336.882812 316.875 337.0625 316.375 337.265625 315.882812 C 337.472656 315.390625 337.699219 314.90625 337.949219 314.4375 C 338.203125 313.96875 338.476562 313.511719 338.773438 313.066406 C 339.070312 312.625 339.386719 312.195312 339.722656 311.785156 C 340.0625 311.371094 340.421875 310.976562 340.796875 310.601562 C 341.175781 310.222656 341.570312 309.867188 341.980469 309.527344 C 342.394531 309.191406 342.820312 308.871094 343.265625 308.578125 C 343.707031 308.28125 344.164062 308.007812 344.636719 307.753906 C 345.105469 307.503906 345.585938 307.277344 346.082031 307.074219 C 346.574219 306.867188 347.074219 306.6875 347.585938 306.535156 C 348.09375 306.378906 348.613281 306.25 349.132812 306.144531 C 349.65625 306.042969 350.183594 305.964844 350.714844 305.910156 C 351.246094 305.859375 351.777344 305.832031 352.3125 305.832031 C 352.84375 305.832031 353.375 305.859375 353.90625 305.910156 C 354.4375 305.964844 354.964844 306.042969 355.488281 306.144531 C 356.011719 306.25 356.527344 306.378906 357.039062 306.535156 C 357.546875 306.6875 358.050781 306.867188 358.542969 307.074219 C 359.035156 307.277344 359.515625 307.503906 359.988281 307.753906 C 360.457031 308.007812 360.914062 308.28125 361.359375 308.578125 C 361.800781 308.871094 362.230469 309.191406 362.640625 309.527344 C 363.054688 309.867188 363.449219 310.222656 363.824219 310.601562 C 364.203125 310.976562 364.5625 311.371094 364.898438 311.785156 C 365.238281 312.195312 365.554688 312.625 365.851562 313.066406 C 366.148438 313.511719 366.421875 313.96875 366.671875 314.4375 C 366.921875 314.90625 367.152344 315.390625 367.355469 315.882812 C 367.558594 316.375 367.738281 316.875 367.894531 317.386719 C 368.046875 317.894531 368.179688 318.410156 368.28125 318.933594 C 368.386719 319.457031 368.464844 319.984375 368.515625 320.515625 C 368.570312 321.046875 368.59375 321.578125 368.59375 322.109375 Z M 368.59375 322.109375 " fill-opacity="1" fill-rule="nonzero"/><path stroke-linecap="butt" transform="matrix(0.414394, 0, 0, 0.414216, 101.42438, 37.880101)" fill-opacity="1" fill="#efca65" fill-rule="nonzero" stroke-linejoin="miter" d="M 756.068521 932.820511 C 756.068521 932.820511 819.291543 898.616233 849.34298 830.73578 C 879.394418 762.855328 808.404024 720.88035 808.404024 720.88035 C 808.404024 720.88035 746.510128 684.280734 678.818982 737.232768 C 661.785435 750.558008 649.785598 769.494372 646.128145 790.816643 C 643.356777 806.96159 644.789593 826.708974 657.091076 847.833205 C 688.188846 901.209609 756.068521 932.820511 756.068521 932.820511 Z M 756.068521 932.820511 " stroke="#000000" stroke-width="7.308" stroke-opacity="1" stroke-miterlimit="10"/><path stroke-linecap="butt" transform="matrix(0.414394, 0, 0, 0.414216, 101.42438, 37.880101)" fill-opacity="1" fill="#4c291b" fill-rule="nonzero" stroke-linejoin="miter" d="M 1016.237806 976.389237 C 1016.237806 976.389237 1030.69794 1052.087541 960.951833 1052.087541 C 891.205727 1052.087541 900.556739 976.389237 900.556739 976.389237 C 900.556739 976.389237 907.438028 1033.971627 958.812035 1033.971627 C 1010.186043 1033.971627 1016.237806 976.389237 1016.237806 976.389237 Z M 1016.237806 976.389237 " stroke="#000000" stroke-width="7.308" stroke-opacity="1" stroke-miterlimit="10"/><path stroke-linecap="butt" transform="matrix(0.414394, 0, 0, 0.414216, 101.42438, 37.880101)" fill-opacity="1" fill="#4c291b" fill-rule="nonzero" stroke-linejoin="miter" d="M 803.030962 1023.400081 C 803.030962 1023.400081 817.491096 1099.098385 747.744989 1099.098385 C 677.989456 1099.098385 687.349895 1023.400081 687.349895 1023.400081 C 687.349895 1023.400081 694.231184 1080.982471 745.605191 1080.982471 C 796.979199 1080.982471 803.030962 1023.400081 803.030962 1023.400081 Z M 803.030962 1023.400081 " stroke="#000000" stroke-width="7.308" stroke-opacity="1" stroke-miterlimit="10"/><path stroke-linecap="butt" transform="matrix(0.414394, 0, 0, 0.414216, 101.42438, 37.880101)" fill-opacity="1" fill="#4c291b" fill-rule="nonzero" stroke-linejoin="miter" d="M 685.690844 1163.498997 C 685.690844 1163.498997 700.150978 1239.206731 630.395445 1239.206731 C 560.649338 1239.206731 570.009777 1163.498997 570.009777 1163.498997 C 570.009777 1163.498997 576.881639 1221.081387 628.255647 1221.081387 C 679.629654 1221.081387 685.690844 1163.498997 685.690844 1163.498997 Z M 685.690844 1163.498997 " stroke="#000000" stroke-width="7.308" stroke-opacity="1" stroke-miterlimit="10"/><path stroke-linecap="butt" transform="matrix(0.414394, 0, 0, 0.414216, 101.42438, 37.880101)" fill-opacity="1" fill="#4c291b" fill-rule="nonzero" stroke-linejoin="miter" d="M 914.187347 1149.862552 C 914.187347 1149.862552 928.64748 1225.570286 858.901374 1225.570286 C 789.155267 1225.570286 798.506279 1149.862552 798.506279 1149.862552 C 798.506279 1149.862552 805.387568 1207.454372 856.761576 1207.454372 C 908.135583 1207.454372 914.187347 1149.862552 914.187347 1149.862552 Z M 914.187347 1149.862552 " stroke="#000000" stroke-width="7.308" stroke-opacity="1" stroke-miterlimit="10"/><path stroke-linecap="butt" transform="matrix(0.414394, 0, 0, 0.414216, 101.42438, 37.880101)" fill-opacity="1" fill="#4c291b" fill-rule="nonzero" stroke-linejoin="miter" d="M 1022.223585 1323.345297 C 1022.223585 1323.345297 1036.683719 1399.0436 966.928186 1399.0436 C 897.182079 1399.0436 906.542518 1323.345297 906.542518 1323.345297 C 906.542518 1323.345297 913.41438 1380.927686 964.788388 1380.927686 C 1016.162395 1380.927686 1022.223585 1323.345297 1022.223585 1323.345297 Z M 1022.223585 1323.345297 " stroke="#000000" stroke-width="7.308" stroke-opacity="1" stroke-miterlimit="10"/><path stroke-linecap="butt" transform="matrix(0.414394, 0, 0, 0.414216, 101.42438, 37.880101)" fill-opacity="1" fill="#4c291b" fill-rule="nonzero" stroke-linejoin="miter" d="M 803.030962 1347.1855 C 803.030962 1347.1855 817.491096 1422.893234 747.744989 1422.893234 C 677.989456 1422.893234 687.349895 1347.1855 687.349895 1347.1855 C 687.349895 1347.1855 694.231184 1404.76789 745.605191 1404.76789 C 796.979199 1404.76789 803.030962 1347.1855 803.030962 1347.1855 Z M 803.030962 1347.1855 " stroke="#000000" stroke-width="7.308" stroke-opacity="1" stroke-miterlimit="10"/><path stroke-linecap="butt" transform="matrix(0.414394, 0, 0, 0.414216, 101.42438, 37.880101)" fill-opacity="1" fill="#4c291b" fill-rule="nonzero" stroke-linejoin="miter" d="M 583.074799 1327.466408 C 583.074799 1327.466408 597.534933 1403.164711 527.788826 1403.164711 C 458.04272 1403.164711 467.393732 1327.466408 467.393732 1327.466408 C 467.393732 1327.466408 474.275021 1385.048797 525.649028 1385.048797 C 577.023036 1385.048797 583.074799 1327.466408 583.074799 1327.466408 Z M 583.074799 1327.466408 " stroke="#000000" stroke-width="7.308" stroke-opacity="1" stroke-miterlimit="10"/><path stroke-linecap="butt" transform="matrix(0.414394, 0, 0, 0.414216, 101.42438, 37.880101)" fill-opacity="1" fill="#4c291b" fill-rule="nonzero" stroke-linejoin="miter" d="M 599.137425 985.546214 C 599.137425 985.546214 613.597558 1061.244518 543.851452 1061.244518 C 474.095919 1061.244518 483.456357 985.546214 483.456357 985.546214 C 483.456357 985.546214 490.337646 1043.128604 541.711654 1043.128604 C 593.085661 1043.128604 599.137425 985.546214 599.137425 985.546214 Z M 599.137425 985.546214 " stroke="#000000" stroke-width="7.308" stroke-opacity="1" stroke-miterlimit="10"/><path fill="#4c291b" d="M 247.273438 622.90625 C 251.398438 615.878906 254.53125 608.316406 256.601562 600.4375 C 270.75 546.664062 274.578125 462.542969 274.578125 462.542969 C 279.03125 405.5625 204.621094 370.886719 182.8125 361.980469 C 179.109375 360.46875 175.152344 359.691406 171.148438 359.691406 C 160.539062 510.453125 203.675781 566.042969 203.675781 566.042969 C 203.675781 566.042969 213.25 595.242188 247.273438 622.90625 Z M 247.273438 622.90625 " fill-opacity="1" fill-rule="nonzero"/><g clip-path="url(#ef481a2bb3)"><path stroke-linecap="butt" transform="matrix(0.414394, 0, 0, 0.414216, 101.42438, 37.880101)" fill="none" stroke-linejoin="miter" d="M 351.957751 1412.36884 C 361.912054 1395.403443 369.472046 1377.146072 374.46805 1358.124834 C 408.610556 1228.305119 417.84845 1025.22016 417.84845 1025.22016 C 428.594573 887.658038 249.030634 803.943843 196.402912 782.442394 C 187.466663 778.792806 177.917696 776.916144 168.255612 776.916144 C 142.653446 1140.884754 246.74944 1275.089632 246.74944 1275.089632 C 246.74944 1275.089632 269.853603 1345.582322 351.957751 1412.36884 Z M 351.957751 1412.36884 " stroke="#000000" stroke-width="7.308" stroke-opacity="1" stroke-miterlimit="10"/></g><path fill="#4c291b" d="M 644.316406 359.691406 C 639.402344 359.691406 634.546875 360.664062 630.011719 362.554688 C 606.609375 372.300781 535.273438 406.71875 539.636719 462.542969 C 539.636719 462.542969 543.671875 551.28125 558.78125 604.738281 C 560.324219 610.191406 562.546875 615.421875 565.414062 620.308594 C 605.320312 586.328125 617.164062 547.933594 617.164062 547.933594 C 617.164062 547.933594 649.527344 476.6875 644.316406 359.691406 Z M 644.316406 359.691406 " fill-opacity="1" fill-rule="nonzero"/><g clip-path="url(#697e9fe3e9)"><path stroke-linecap="butt" transform="matrix(0.414394, 0, 0, 0.414216, 101.42438, 37.880101)" fill="none" stroke-linejoin="miter" d="M 1310.087702 776.916144 C 1298.229262 776.916144 1286.512217 779.264329 1275.56814 783.828672 C 1219.094437 807.35767 1046.949094 890.449454 1057.478409 1025.22016 C 1057.478409 1025.22016 1067.215904 1239.451923 1103.67731 1368.50777 C 1107.400747 1381.672693 1112.764382 1394.300079 1119.683376 1406.097584 C 1215.983718 1324.062012 1244.564633 1231.370019 1244.564633 1231.370019 C 1244.564633 1231.370019 1322.662551 1059.367856 1310.087702 776.916144 Z M 1310.087702 776.916144 " stroke="#000000" stroke-width="7.308" stroke-opacity="1" stroke-miterlimit="10"/></g></svg>