<svg xmlns="http://www.w3.org/2000/svg" xmlns:xlink="http://www.w3.org/1999/xlink" width="1080" zoomAndPan="magnify" viewBox="0 0 810 809.999993" height="1080" preserveAspectRatio="xMidYMid meet" version="1.0"><path fill="#a66441" d="M 309.875 497.246094 C 281.601562 600.898438 273.625 600.898438 300.449219 609.597656 C 327.273438 618.296875 332.347656 623.371094 298.273438 622.644531 C 264.199219 621.921875 275.074219 616.847656 248.25 629.167969 C 221.425781 641.492188 204.75 640.765625 227.226562 624.820312 C 249.699219 608.875 237.375 621.921875 212.726562 615.398438 C 188.078125 608.875 210.550781 607.421875 235.199219 603.800781 C 259.851562 600.175781 259.851562 622.644531 292.476562 500.871094 C 325.101562 379.09375 309.875 497.246094 309.875 497.246094 Z M 309.875 497.246094 " fill-opacity="1" fill-rule="nonzero"/><path fill="#985b3b" d="M 298.65625 498.941406 C 287.507812 553.441406 275.738281 593.078125 265.515625 604.847656 C 256.714844 614.984375 231.644531 627.410156 216.8125 636.199219 C 218.003906 639.613281 231.035156 637.078125 248.25 629.167969 C 275.074219 616.847656 264.199219 621.921875 298.273438 622.644531 C 332.351562 623.371094 327.273438 618.296875 300.449219 609.597656 C 274.160156 601.074219 281.296875 600.886719 308.207031 503.324219 Z M 298.65625 498.941406 " fill-opacity="1" fill-rule="nonzero"/><path fill="#a66441" d="M 415.386719 527.164062 C 387.113281 630.816406 379.136719 630.816406 405.960938 639.515625 C 432.785156 648.214844 437.863281 653.289062 403.785156 652.5625 C 369.710938 651.835938 380.585938 646.761719 353.761719 659.085938 C 326.9375 671.410156 310.261719 670.683594 332.738281 654.738281 C 355.210938 638.789062 342.886719 651.835938 318.238281 645.3125 C 293.589844 638.789062 316.0625 637.339844 340.714844 633.714844 C 365.363281 630.09375 365.363281 652.5625 397.988281 530.785156 C 430.613281 409.011719 415.386719 527.164062 415.386719 527.164062 Z M 415.386719 527.164062 " fill-opacity="1" fill-rule="nonzero"/><path fill="#985b3b" d="M 404.164062 528.851562 C 393.015625 583.351562 381.246094 622.988281 371.027344 634.757812 C 362.222656 644.890625 337.152344 657.320312 322.320312 666.105469 C 323.511719 669.519531 336.542969 666.988281 353.757812 659.078125 C 380.582031 646.757812 369.710938 651.832031 403.78125 652.554688 C 437.855469 653.28125 432.78125 648.207031 405.957031 639.507812 C 379.667969 630.984375 386.808594 630.796875 413.714844 533.234375 Z M 404.164062 528.851562 " fill-opacity="1" fill-rule="nonzero"/><path fill="#9b5936" d="M 483.949219 365.175781 C 664.398438 201.160156 710.539062 175.53125 719.765625 180.660156 C 728.992188 185.785156 673.628906 332.375 557.769531 436.933594 C 441.910156 541.492188 483.949219 365.175781 483.949219 365.175781 Z M 483.949219 365.175781 " fill-opacity="1" fill-rule="nonzero"/><path fill="#a66441" d="M 717.230469 180.070312 C 703.378906 179.820312 651.703125 212.691406 483.945312 365.171875 C 483.945312 365.171875 478.808594 386.707031 477.074219 410.261719 L 478.0625 423.6875 C 478.0625 423.6875 646.191406 301.667969 719.625 180.589844 C 718.996094 180.269531 718.207031 180.085938 717.230469 180.070312 Z M 717.230469 180.070312 " fill-opacity="1" fill-rule="nonzero"/><path fill="#e4b378" d="M 146.265625 351.503906 C 152.386719 498.816406 280.097656 585.214844 400.480469 556.464844 C 499.585938 532.796875 589.398438 459.753906 524.484375 381.230469 C 463.992188 308.058594 378.402344 195.183594 277.445312 181.394531 C 153.445312 164.453125 142.484375 260.5 146.265625 351.503906 Z M 146.265625 351.503906 " fill-opacity="1" fill-rule="nonzero"/><path fill="#ecc290" d="M 250.402344 179.433594 C 151.820312 179.429688 142.777344 267.605469 146.265625 351.5 C 146.371094 354.082031 146.519531 356.648438 146.699219 359.191406 C 178.179688 488.171875 301.792969 559.351562 419.085938 531.394531 C 460.996094 521.40625 501.394531 503.40625 531.207031 480.132812 C 551.554688 450.96875 553.765625 416.65625 524.476562 381.226562 C 463.984375 308.054688 378.398438 195.183594 277.441406 181.390625 C 267.753906 180.070312 258.757812 179.433594 250.402344 179.433594 Z M 250.402344 179.433594 " fill-opacity="1" fill-rule="nonzero"/><path fill="#a66441" d="M 250.40625 179.4375 C 258.761719 179.4375 267.757812 180.070312 277.445312 181.394531 C 374.609375 194.664062 457.523438 299.699219 517.546875 372.804688 C 450.066406 397.558594 282.121094 451.882812 266.585938 385.679688 C 247.386719 303.839844 223.171875 282.742188 152.78125 255.652344 C 163.949219 211.644531 190.820312 179.433594 250.40625 179.4375 Z M 250.40625 179.4375 " fill-opacity="1" fill-rule="nonzero"/><path fill="#8b4a34" d="M 259.902344 340.980469 C 248.375 383.988281 292.929688 443.054688 351.835938 456.378906 C 448.105469 478.15625 617.769531 461.128906 617.769531 461.128906 C 617.769531 461.128906 512.402344 322.40625 386.398438 291.398438 C 327.753906 276.972656 271.429688 297.96875 259.902344 340.980469 Z M 259.902344 340.980469 " fill-opacity="1" fill-rule="nonzero"/><path fill="#ffffff" d="M 207.632812 247.289062 C 207.632812 248.046875 207.667969 248.796875 207.742188 249.550781 C 207.816406 250.300781 207.929688 251.046875 208.074219 251.789062 C 208.222656 252.53125 208.40625 253.261719 208.625 253.984375 C 208.84375 254.707031 209.101562 255.417969 209.390625 256.117188 C 209.679688 256.8125 210 257.496094 210.355469 258.164062 C 210.714844 258.828125 211.101562 259.476562 211.519531 260.105469 C 211.941406 260.730469 212.390625 261.339844 212.871094 261.921875 C 213.347656 262.503906 213.855469 263.066406 214.390625 263.597656 C 214.925781 264.132812 215.484375 264.640625 216.066406 265.117188 C 216.652344 265.597656 217.257812 266.046875 217.886719 266.46875 C 218.515625 266.886719 219.160156 267.273438 219.828125 267.632812 C 220.492188 267.988281 221.175781 268.308594 221.875 268.597656 C 222.570312 268.886719 223.28125 269.140625 224.003906 269.363281 C 224.726562 269.582031 225.460938 269.765625 226.203125 269.910156 C 226.941406 270.058594 227.6875 270.167969 228.441406 270.242188 C 229.191406 270.316406 229.945312 270.355469 230.703125 270.355469 C 231.457031 270.355469 232.210938 270.316406 232.964844 270.242188 C 233.714844 270.167969 234.460938 270.058594 235.203125 269.910156 C 235.945312 269.765625 236.675781 269.582031 237.398438 269.363281 C 238.121094 269.140625 238.832031 268.886719 239.53125 268.597656 C 240.226562 268.308594 240.910156 267.988281 241.578125 267.632812 C 242.242188 267.273438 242.890625 266.886719 243.519531 266.46875 C 244.148438 266.046875 244.753906 265.597656 245.335938 265.117188 C 245.921875 264.640625 246.480469 264.132812 247.015625 263.597656 C 247.546875 263.066406 248.054688 262.503906 248.535156 261.921875 C 249.015625 261.339844 249.464844 260.730469 249.882812 260.105469 C 250.304688 259.476562 250.691406 258.828125 251.046875 258.164062 C 251.402344 257.496094 251.726562 256.8125 252.015625 256.117188 C 252.304688 255.417969 252.558594 254.707031 252.777344 253.984375 C 252.996094 253.261719 253.179688 252.53125 253.328125 251.789062 C 253.476562 251.046875 253.585938 250.300781 253.660156 249.550781 C 253.734375 248.796875 253.769531 248.046875 253.769531 247.289062 C 253.769531 246.535156 253.734375 245.78125 253.660156 245.027344 C 253.585938 244.277344 253.476562 243.53125 253.328125 242.789062 C 253.179688 242.050781 252.996094 241.316406 252.777344 240.59375 C 252.558594 239.871094 252.304688 239.160156 252.015625 238.464844 C 251.726562 237.765625 251.402344 237.082031 251.046875 236.417969 C 250.691406 235.75 250.304688 235.101562 249.882812 234.476562 C 249.464844 233.847656 249.015625 233.242188 248.535156 232.65625 C 248.054688 232.074219 247.546875 231.515625 247.015625 230.980469 C 246.480469 230.445312 245.921875 229.9375 245.335938 229.460938 C 244.753906 228.980469 244.148438 228.53125 243.519531 228.113281 C 242.890625 227.691406 242.242188 227.304688 241.578125 226.949219 C 240.910156 226.59375 240.226562 226.269531 239.53125 225.980469 C 238.832031 225.691406 238.121094 225.4375 237.398438 225.21875 C 236.675781 225 235.945312 224.816406 235.203125 224.667969 C 234.460938 224.519531 233.714844 224.410156 232.964844 224.335938 C 232.210938 224.261719 231.457031 224.226562 230.703125 224.226562 C 229.945312 224.226562 229.191406 224.261719 228.441406 224.335938 C 227.6875 224.410156 226.941406 224.519531 226.203125 224.667969 C 225.460938 224.816406 224.726562 225 224.003906 225.21875 C 223.28125 225.4375 222.570312 225.691406 221.875 225.980469 C 221.175781 226.269531 220.492188 226.59375 219.828125 226.949219 C 219.160156 227.304688 218.515625 227.691406 217.886719 228.113281 C 217.257812 228.53125 216.652344 228.980469 216.066406 229.460938 C 215.484375 229.9375 214.925781 230.445312 214.390625 230.980469 C 213.855469 231.515625 213.347656 232.074219 212.871094 232.65625 C 212.390625 233.242188 211.941406 233.847656 211.519531 234.476562 C 211.101562 235.101562 210.714844 235.75 210.355469 236.417969 C 210 237.082031 209.679688 237.765625 209.390625 238.464844 C 209.101562 239.160156 208.84375 239.871094 208.625 240.59375 C 208.40625 241.316406 208.222656 242.050781 208.074219 242.789062 C 207.929688 243.53125 207.816406 244.277344 207.742188 245.027344 C 207.667969 245.78125 207.632812 246.535156 207.632812 247.289062 Z M 207.632812 247.289062 " fill-opacity="1" fill-rule="nonzero"/><path fill="#d29c70" d="M 116.300781 232.632812 C 113.628906 232.652344 111.0625 232.746094 108.691406 232.9375 C 89.730469 234.472656 81.527344 237.035156 81.265625 240.367188 C 139.992188 247.6875 173.285156 264.714844 173.285156 264.714844 C 169.070312 243.574219 159.03125 236.167969 159.03125 236.167969 C 159.03125 236.167969 135.011719 232.515625 116.300781 232.632812 Z M 116.300781 232.632812 " fill-opacity="1" fill-rule="nonzero"/><path fill="#30150b" d="M 213.273438 247.289062 C 213.273438 247.859375 213.300781 248.429688 213.355469 248.996094 C 213.410156 249.566406 213.496094 250.128906 213.605469 250.6875 C 213.71875 251.25 213.855469 251.800781 214.023438 252.347656 C 214.1875 252.894531 214.378906 253.429688 214.597656 253.957031 C 214.816406 254.484375 215.0625 255 215.332031 255.503906 C 215.597656 256.007812 215.890625 256.496094 216.210938 256.972656 C 216.527344 257.445312 216.867188 257.902344 217.230469 258.34375 C 217.589844 258.785156 217.972656 259.207031 218.378906 259.613281 C 218.78125 260.015625 219.203125 260.398438 219.644531 260.761719 C 220.085938 261.121094 220.542969 261.460938 221.019531 261.78125 C 221.492188 262.097656 221.980469 262.390625 222.484375 262.660156 C 222.988281 262.925781 223.503906 263.171875 224.03125 263.390625 C 224.558594 263.609375 225.097656 263.800781 225.640625 263.964844 C 226.1875 264.132812 226.742188 264.269531 227.300781 264.382812 C 227.863281 264.492188 228.425781 264.578125 228.992188 264.632812 C 229.5625 264.6875 230.132812 264.714844 230.703125 264.714844 C 231.273438 264.714844 231.84375 264.6875 232.410156 264.632812 C 232.980469 264.578125 233.542969 264.492188 234.101562 264.382812 C 234.664062 264.269531 235.214844 264.132812 235.761719 263.964844 C 236.308594 263.800781 236.84375 263.609375 237.371094 263.390625 C 237.898438 263.171875 238.414062 262.925781 238.917969 262.660156 C 239.421875 262.390625 239.910156 262.097656 240.386719 261.78125 C 240.859375 261.460938 241.316406 261.121094 241.757812 260.761719 C 242.199219 260.398438 242.625 260.015625 243.027344 259.613281 C 243.429688 259.207031 243.8125 258.785156 244.175781 258.34375 C 244.539062 257.902344 244.878906 257.445312 245.195312 256.972656 C 245.511719 256.496094 245.804688 256.007812 246.074219 255.503906 C 246.34375 255 246.585938 254.484375 246.804688 253.957031 C 247.023438 253.429688 247.214844 252.894531 247.382812 252.347656 C 247.546875 251.800781 247.6875 251.25 247.796875 250.6875 C 247.910156 250.128906 247.992188 249.566406 248.046875 248.996094 C 248.105469 248.429688 248.132812 247.859375 248.132812 247.289062 C 248.132812 246.71875 248.105469 246.148438 248.046875 245.582031 C 247.992188 245.011719 247.910156 244.449219 247.796875 243.890625 C 247.6875 243.328125 247.546875 242.777344 247.382812 242.230469 C 247.214844 241.683594 247.023438 241.148438 246.804688 240.621094 C 246.585938 240.09375 246.34375 239.578125 246.074219 239.074219 C 245.804688 238.570312 245.511719 238.082031 245.195312 237.609375 C 244.878906 237.132812 244.539062 236.675781 244.175781 236.234375 C 243.8125 235.792969 243.429688 235.371094 243.027344 234.96875 C 242.625 234.5625 242.199219 234.179688 241.757812 233.820312 C 241.316406 233.457031 240.859375 233.117188 240.386719 232.800781 C 239.910156 232.484375 239.421875 232.191406 238.917969 231.921875 C 238.414062 231.652344 237.898438 231.40625 237.371094 231.1875 C 236.84375 230.972656 236.308594 230.777344 235.761719 230.613281 C 235.214844 230.449219 234.664062 230.308594 234.101562 230.199219 C 233.542969 230.085938 232.980469 230.003906 232.410156 229.945312 C 231.84375 229.890625 231.273438 229.863281 230.703125 229.863281 C 230.132812 229.863281 229.5625 229.890625 228.992188 229.945312 C 228.425781 230.003906 227.863281 230.085938 227.300781 230.199219 C 226.742188 230.308594 226.1875 230.449219 225.640625 230.613281 C 225.097656 230.777344 224.558594 230.972656 224.03125 231.1875 C 223.503906 231.40625 222.988281 231.652344 222.484375 231.921875 C 221.980469 232.191406 221.492188 232.484375 221.019531 232.800781 C 220.542969 233.117188 220.085938 233.457031 219.644531 233.820312 C 219.203125 234.179688 218.78125 234.5625 218.378906 234.96875 C 217.972656 235.371094 217.589844 235.792969 217.230469 236.234375 C 216.867188 236.675781 216.527344 237.132812 216.210938 237.609375 C 215.890625 238.082031 215.597656 238.570312 215.332031 239.074219 C 215.0625 239.578125 214.816406 240.09375 214.597656 240.621094 C 214.378906 241.148438 214.1875 241.683594 214.023438 242.230469 C 213.855469 242.777344 213.71875 243.328125 213.605469 243.890625 C 213.496094 244.449219 213.410156 245.011719 213.355469 245.582031 C 213.300781 246.148438 213.273438 246.71875 213.273438 247.289062 Z M 213.273438 247.289062 " fill-opacity="1" fill-rule="nonzero"/><path fill="#ffffff" d="M 215.292969 234.96875 C 215.292969 235.425781 215.335938 235.875 215.425781 236.320312 C 215.511719 236.765625 215.644531 237.199219 215.820312 237.617188 C 215.992188 238.039062 216.207031 238.4375 216.457031 238.816406 C 216.710938 239.191406 216.996094 239.542969 217.320312 239.863281 C 217.640625 240.183594 217.988281 240.472656 218.367188 240.722656 C 218.746094 240.976562 219.144531 241.1875 219.5625 241.363281 C 219.984375 241.535156 220.417969 241.667969 220.863281 241.757812 C 221.308594 241.84375 221.757812 241.890625 222.210938 241.890625 C 222.667969 241.890625 223.117188 241.84375 223.5625 241.757812 C 224.007812 241.667969 224.441406 241.535156 224.863281 241.363281 C 225.28125 241.1875 225.679688 240.976562 226.058594 240.722656 C 226.4375 240.472656 226.785156 240.183594 227.105469 239.863281 C 227.429688 239.542969 227.714844 239.191406 227.96875 238.816406 C 228.21875 238.4375 228.433594 238.039062 228.605469 237.617188 C 228.78125 237.199219 228.910156 236.765625 229 236.320312 C 229.089844 235.875 229.132812 235.425781 229.132812 234.96875 C 229.132812 234.515625 229.089844 234.066406 229 233.621094 C 228.910156 233.175781 228.78125 232.742188 228.605469 232.320312 C 228.433594 231.902344 228.21875 231.503906 227.96875 231.125 C 227.714844 230.75 227.429688 230.398438 227.105469 230.078125 C 226.785156 229.757812 226.4375 229.46875 226.058594 229.214844 C 225.679688 228.964844 225.28125 228.75 224.863281 228.578125 C 224.441406 228.402344 224.007812 228.273438 223.5625 228.183594 C 223.117188 228.09375 222.667969 228.050781 222.210938 228.050781 C 221.757812 228.050781 221.308594 228.09375 220.863281 228.183594 C 220.417969 228.273438 219.984375 228.402344 219.5625 228.578125 C 219.144531 228.75 218.746094 228.964844 218.367188 229.214844 C 217.988281 229.46875 217.640625 229.757812 217.320312 230.078125 C 216.996094 230.398438 216.710938 230.75 216.457031 231.125 C 216.207031 231.503906 215.992188 231.902344 215.820312 232.320312 C 215.644531 232.742188 215.511719 233.175781 215.425781 233.621094 C 215.335938 234.066406 215.292969 234.515625 215.292969 234.96875 Z M 215.292969 234.96875 " fill-opacity="1" fill-rule="nonzero"/><path fill="#ecc290" d="M 573.386719 381.570312 C 572.199219 384.054688 575.84375 389.976562 580.933594 392.410156 C 586.019531 394.84375 590.253906 393.632812 591.808594 390.382812 C 593.363281 387.132812 591.648438 383.078125 586.5625 380.644531 C 581.476562 378.210938 574.574219 379.089844 573.386719 381.570312 Z M 573.386719 381.570312 " fill-opacity="0.274" fill-rule="nonzero"/><path fill="#ecc290" d="M 591.328125 360.558594 C 590.140625 363.039062 593.789062 368.964844 598.875 371.398438 C 603.960938 373.828125 608.195312 372.617188 609.75 369.367188 C 611.304688 366.117188 609.59375 362.0625 604.503906 359.628906 C 599.417969 357.195312 592.515625 358.074219 591.328125 360.558594 Z M 591.328125 360.558594 " fill-opacity="0.274" fill-rule="nonzero"/><path fill="#ecc290" d="M 608.246094 340.566406 C 607.058594 343.050781 610.707031 348.972656 615.792969 351.40625 C 620.878906 353.839844 625.113281 352.628906 626.667969 349.378906 C 628.222656 346.128906 626.507812 342.074219 621.421875 339.640625 C 616.335938 337.207031 609.433594 338.085938 608.246094 340.566406 Z M 608.246094 340.566406 " fill-opacity="0.274" fill-rule="nonzero"/><path fill="#ecc290" d="M 622.085938 317.503906 C 620.898438 319.984375 624.546875 325.910156 629.632812 328.34375 C 634.722656 330.777344 638.953125 329.5625 640.507812 326.3125 C 642.0625 323.0625 640.351562 319.007812 635.261719 316.574219 C 630.175781 314.140625 623.273438 315.019531 622.085938 317.503906 Z M 622.085938 317.503906 " fill-opacity="0.274" fill-rule="nonzero"/><path fill="#ecc290" d="M 635.925781 298.027344 C 634.738281 300.507812 638.386719 306.433594 643.476562 308.867188 C 648.5625 311.296875 652.796875 310.085938 654.351562 306.835938 C 655.90625 303.585938 654.191406 299.53125 649.105469 297.097656 C 644.019531 294.664062 637.113281 295.542969 635.925781 298.027344 Z M 635.925781 298.027344 " fill-opacity="0.274" fill-rule="nonzero"/><path fill="#ecc290" d="M 649.257812 275.988281 C 648.070312 278.46875 651.71875 284.394531 656.804688 286.824219 C 661.890625 289.257812 666.125 288.046875 667.679688 284.796875 C 669.234375 281.546875 667.519531 277.492188 662.433594 275.058594 C 657.347656 272.625 650.445312 273.503906 649.257812 275.988281 Z M 649.257812 275.988281 " fill-opacity="0.274" fill-rule="nonzero"/><path fill="#ecc290" d="M 661.046875 254.972656 C 659.859375 257.453125 663.507812 263.378906 668.59375 265.8125 C 673.683594 268.246094 677.914062 267.03125 679.46875 263.78125 C 681.023438 260.53125 679.3125 256.476562 674.226562 254.042969 C 669.136719 251.609375 662.234375 252.488281 661.046875 254.972656 Z M 661.046875 254.972656 " fill-opacity="0.274" fill-rule="nonzero"/><path fill="#ecc290" d="M 673.335938 232.449219 C 672.148438 234.933594 675.796875 240.855469 680.882812 243.289062 C 685.96875 245.722656 690.203125 244.507812 691.757812 241.261719 C 693.3125 238.011719 691.601562 233.953125 686.511719 231.523438 C 681.425781 229.089844 674.523438 229.96875 673.335938 232.449219 Z M 673.335938 232.449219 " fill-opacity="0.274" fill-rule="nonzero"/><path fill="#ecc290" d="M 683.570312 213.835938 C 683.0625 216.539062 688.113281 221.324219 693.65625 222.363281 C 699.199219 223.402344 702.976562 221.136719 703.640625 217.597656 C 704.304688 214.058594 701.605469 210.578125 696.0625 209.542969 C 690.519531 208.503906 684.078125 211.132812 683.570312 213.835938 Z M 683.570312 213.835938 " fill-opacity="0.274" fill-rule="nonzero"/><path fill="#ecc290" d="M 694.933594 201.851562 C 695.390625 203.765625 700.078125 205.414062 703.996094 204.480469 C 707.917969 203.542969 709.722656 200.96875 709.125 198.464844 C 708.523438 195.960938 705.75 194.480469 701.832031 195.414062 C 697.914062 196.351562 694.476562 199.941406 694.933594 201.851562 Z M 694.933594 201.851562 " fill-opacity="0.274" fill-rule="nonzero"/><path fill="#a66441" d="M 349.664062 416.152344 C 345.609375 418.382812 344.789062 430.054688 349.359375 438.359375 C 353.925781 446.667969 360.902344 449.15625 366.207031 446.238281 C 371.515625 443.316406 373.152344 436.097656 368.582031 427.789062 C 364.011719 419.484375 353.71875 413.925781 349.664062 416.152344 Z M 349.664062 416.152344 " fill-opacity="1" fill-rule="nonzero"/><path fill="#a66441" d="M 363.703125 394.238281 C 361.0625 395.6875 360.527344 403.296875 363.503906 408.710938 C 366.484375 414.125 371.027344 415.746094 374.488281 413.84375 C 377.949219 411.941406 379.011719 407.234375 376.035156 401.820312 C 373.058594 396.40625 366.347656 392.785156 363.703125 394.238281 Z M 363.703125 394.238281 " fill-opacity="1" fill-rule="nonzero"/><path fill="#a66441" d="M 387.363281 419.777344 C 383.308594 422.007812 382.488281 433.675781 387.058594 441.984375 C 391.628906 450.292969 398.601562 452.78125 403.910156 449.859375 C 409.214844 446.941406 410.851562 439.722656 406.28125 431.414062 C 401.710938 423.109375 391.417969 417.550781 387.363281 419.777344 Z M 387.363281 419.777344 " fill-opacity="1" fill-rule="nonzero"/><path fill="#a66441" d="M 401.402344 397.859375 C 398.761719 399.3125 398.226562 406.921875 401.203125 412.335938 C 404.183594 417.75 408.726562 419.371094 412.1875 417.46875 C 415.648438 415.566406 416.710938 410.859375 413.734375 405.445312 C 410.757812 400.03125 404.046875 396.40625 401.402344 397.859375 Z M 401.402344 397.859375 " fill-opacity="1" fill-rule="nonzero"/><path fill="#a66441" d="M 426.511719 423.402344 C 422.457031 425.632812 421.636719 437.300781 426.207031 445.609375 C 430.777344 453.914062 437.75 456.402344 443.058594 453.484375 C 448.367188 450.566406 450 443.347656 445.429688 435.039062 C 440.859375 426.730469 430.566406 421.171875 426.511719 423.402344 Z M 426.511719 423.402344 " fill-opacity="1" fill-rule="nonzero"/><path fill="#a66441" d="M 443.628906 401.996094 C 440.984375 403.449219 440.453125 411.058594 443.429688 416.472656 C 446.410156 421.886719 450.953125 423.507812 454.414062 421.605469 C 457.875 419.703125 458.9375 414.996094 455.960938 409.582031 C 452.980469 404.167969 446.269531 400.542969 443.628906 401.996094 Z M 443.628906 401.996094 " fill-opacity="1" fill-rule="nonzero"/><path fill="#a66441" d="M 466.773438 425.878906 C 462.71875 428.105469 461.902344 439.777344 466.46875 448.082031 C 471.039062 456.390625 478.011719 458.878906 483.320312 455.960938 C 488.628906 453.042969 490.261719 445.820312 485.691406 437.515625 C 481.125 429.207031 470.828125 423.648438 466.773438 425.878906 Z M 466.773438 425.878906 " fill-opacity="1" fill-rule="nonzero"/><path fill="#a66441" d="M 485.941406 403.445312 C 483.296875 404.898438 482.765625 412.507812 485.742188 417.921875 C 488.722656 423.335938 493.265625 424.957031 496.726562 423.054688 C 500.1875 421.152344 501.25 416.445312 498.273438 411.03125 C 495.292969 405.617188 488.585938 401.992188 485.941406 403.445312 Z M 485.941406 403.445312 " fill-opacity="1" fill-rule="nonzero"/><path fill="#a66441" d="M 505.972656 427.78125 C 502.390625 430.707031 503.699219 442.332031 509.699219 449.675781 C 515.699219 457.015625 523.007812 458.199219 527.699219 454.363281 C 532.390625 450.53125 532.6875 443.136719 526.6875 435.792969 C 520.6875 428.453125 509.554688 424.855469 505.972656 427.78125 Z M 505.972656 427.78125 " fill-opacity="1" fill-rule="nonzero"/><path fill="#a66441" d="M 526.753906 404.984375 C 524.109375 406.4375 523.578125 414.042969 526.554688 419.457031 C 529.53125 424.875 534.078125 426.496094 537.539062 424.59375 C 541 422.691406 542.0625 417.984375 539.085938 412.570312 C 536.105469 407.15625 529.394531 403.53125 526.753906 404.984375 Z M 526.753906 404.984375 " fill-opacity="1" fill-rule="nonzero"/><path fill="#a66441" d="M 547.113281 428.828125 C 543.609375 431.851562 545.234375 443.4375 551.433594 450.613281 C 557.628906 457.789062 564.964844 458.773438 569.550781 454.8125 C 574.136719 450.855469 574.234375 443.453125 568.035156 436.277344 C 561.839844 429.101562 550.613281 425.804688 547.113281 428.828125 Z M 547.113281 428.828125 " fill-opacity="1" fill-rule="nonzero"/><path fill="#cc905e" d="M 81.265625 240.367188 C 81.007812 243.699219 88.695312 247.800781 101.515625 252.414062 C 127.148438 261.640625 148.917969 277.585938 148.917969 277.585938 C 156.945312 274.851562 166.679688 272.199219 173.285156 264.714844 C 173.285156 264.714844 139.992188 247.6875 81.265625 240.367188 Z M 81.265625 240.367188 " fill-opacity="1" fill-rule="nonzero"/><path fill="#a66441" d="M 349.664062 416.152344 C 345.609375 418.382812 344.789062 430.054688 349.359375 438.359375 C 353.925781 446.667969 360.902344 449.15625 366.207031 446.238281 C 371.515625 443.316406 373.152344 436.097656 368.582031 427.789062 C 364.011719 419.484375 353.71875 413.925781 349.664062 416.152344 Z M 349.664062 416.152344 " fill-opacity="1" fill-rule="nonzero"/></svg>