<svg xmlns="http://www.w3.org/2000/svg" xmlns:xlink="http://www.w3.org/1999/xlink" width="1080" zoomAndPan="magnify" viewBox="0 0 810 809.999993" height="1080" preserveAspectRatio="xMidYMid meet" version="1.0"><defs><clipPath id="067ddd7b4c"><path d="M 388.433594 110.566406 L 728.804688 110.566406 L 728.804688 524.378906 L 388.433594 524.378906 Z M 388.433594 110.566406 " clip-rule="nonzero"/></clipPath><clipPath id="844eaa811e"><path d="M 266.945312 249 L 714.5 249 L 714.5 699.308594 L 266.945312 699.308594 Z M 266.945312 249 " clip-rule="nonzero"/></clipPath><clipPath id="3f0aa72388"><path d="M 336.367188 257 L 714.5 257 L 714.5 699.308594 L 336.367188 699.308594 Z M 336.367188 257 " clip-rule="nonzero"/></clipPath><clipPath id="5b61b6980d"><path d="M 535.164062 110.566406 L 728.804688 110.566406 L 728.804688 497 L 535.164062 497 Z M 535.164062 110.566406 " clip-rule="nonzero"/></clipPath></defs><path fill="#ff8500" d="M 326.980469 530.945312 C 291.246094 527.09375 262.195312 518.890625 238.585938 508.621094 C 190.25 487.652344 164.847656 458.066406 152.179688 439.359375 C 133.335938 411.496094 164.273438 415.277344 164.273438 415.277344 C 141.472656 398.597656 120.800781 380.328125 109.382812 364.691406 C 89.253906 337.164062 89.523438 315.890625 98.441406 312.277344 C 109.484375 307.816406 136.777344 325.886719 138.300781 326.898438 C 87.023438 280.835938 81.214844 231.664062 98.441406 229.132812 C 108.304688 227.679688 126.816406 244.09375 159.171875 273.035156 C 184.335938 295.523438 214.5 321.628906 242.335938 344.359375 C 265.878906 363.609375 287.765625 380.460938 303.574219 390.726562 C 352.789062 422.710938 435.816406 542.765625 326.980469 530.945312 " fill-opacity="1" fill-rule="nonzero"/><g clip-path="url(#067ddd7b4c)"><path fill="#ff8500" d="M 708.949219 384.410156 C 715.699219 394.613281 693.171875 443.003906 643.855469 475.390625 C 631.421875 483.53125 618.550781 490.589844 605.550781 496.601562 C 566.875 514.535156 526.980469 523.347656 494.453125 524.191406 C 380.453125 527.195312 355.425781 434.328125 434.058594 390.457031 C 462.429688 374.652344 505.332031 338.484375 539.683594 306.230469 C 550.457031 296.136719 560.390625 286.40625 568.765625 277.796875 C 603.828125 241.796875 645.777344 183.609375 672.089844 144.296875 C 698.40625 105.023438 711.476562 100.363281 718.671875 128.664062 C 725.835938 156.960938 707.726562 221.535156 688.917969 254.460938 C 670.097656 287.386719 653.210938 305.929688 653.210938 305.929688 C 653.210938 305.929688 688.917969 277.863281 700.769531 267.394531 C 716.410156 253.582031 728.804688 253.210938 728.804688 280.632812 C 728.804688 308.054688 716.410156 352.871094 674.359375 390.421875 C 675.640625 389.714844 702.359375 374.484375 708.949219 384.410156 " fill-opacity="1" fill-rule="nonzero"/></g><g clip-path="url(#844eaa811e)"><path fill="#ffde55" d="M 713.574219 627.566406 C 704.992188 660.964844 643.855469 668.160156 643.855469 668.160156 C 643.855469 668.160156 624.839844 705.613281 580.585938 698.382812 C 538.128906 691.460938 476.71875 608.585938 476.71875 608.585938 C 476.71875 608.585938 449.089844 614.125 398.390625 597.710938 C 376.332031 590.550781 355.121094 578.058594 336.40625 562.554688 C 297.328125 530.171875 269.15625 484.679688 267.160156 447.664062 C 264.257812 393.359375 294.25 380.328125 283.003906 348.175781 C 272.230469 317.476562 275.605469 266.144531 332.386719 251.792969 C 352.890625 246.589844 369.613281 249.394531 383.292969 257.128906 C 411.496094 273.035156 426.730469 309.8125 435.613281 340.507812 C 443.484375 367.695312 463.648438 408.121094 477.566406 431.386719 C 491.480469 454.625 523.46875 512.574219 580.585938 547.289062 C 653.417969 591.5 723.402344 589.367188 713.574219 627.566406 " fill-opacity="1" fill-rule="nonzero"/></g><g clip-path="url(#3f0aa72388)"><path fill="#ffb41d" d="M 713.574219 627.566406 C 704.992188 660.964844 643.855469 668.160156 643.855469 668.160156 C 643.855469 668.160156 624.839844 705.613281 580.585938 698.382812 C 538.128906 691.460938 476.71875 608.585938 476.71875 608.585938 C 476.71875 608.585938 449.089844 614.125 398.390625 597.710938 C 376.332031 590.550781 355.121094 578.058594 336.40625 562.554688 C 444.902344 627.566406 464.460938 499.777344 444.023438 442.699219 C 423.117188 384.445312 371.164062 365.597656 371.164062 365.597656 C 419.703125 343.644531 417.898438 282.886719 383.292969 257.128906 C 411.496094 273.035156 426.730469 309.8125 435.613281 340.507812 C 443.484375 367.695312 463.648438 408.121094 477.566406 431.386719 C 491.480469 454.625 523.46875 512.574219 580.585938 547.289062 C 653.417969 591.5 723.402344 589.367188 713.574219 627.566406 " fill-opacity="1" fill-rule="nonzero"/></g><path fill="#fa4b8d" d="M 313.441406 332.085938 C 313.441406 332.085938 313.484375 351.144531 303.058594 355.148438 C 292.628906 359.148438 264.320312 344.523438 266.960938 342.730469 C 269.605469 340.9375 306.105469 334.007812 313.441406 332.085938 " fill-opacity="1" fill-rule="nonzero"/><path fill="#fa4b8d" d="M 313.441406 332.085938 C 313.441406 332.085938 306.246094 312.007812 292.535156 310.355469 C 278.828125 308.699219 260.261719 331.851562 261.105469 334.386719 C 261.949219 336.917969 295.972656 340.480469 313.441406 332.085938 " fill-opacity="1" fill-rule="nonzero"/><path fill="#5d3daa" d="M 373.457031 299.460938 C 373.457031 305.542969 368.523438 310.476562 362.4375 310.476562 C 356.351562 310.476562 351.421875 305.542969 351.421875 299.460938 C 351.421875 293.375 356.351562 288.441406 362.4375 288.441406 C 368.523438 288.441406 373.457031 293.375 373.457031 299.460938 " fill-opacity="1" fill-rule="nonzero"/><path fill="#fffb71" d="M 379.109375 567.539062 C 365.738281 561.46875 351.203125 551.941406 337.921875 538.59375 C 324.632812 525.304688 312.644531 508.269531 304.003906 488.683594 C 295.5 469.042969 291.136719 448.671875 290.414062 429.890625 C 289.636719 411.082031 292.519531 393.945312 297.144531 380.015625 C 296.988281 394.746094 297.886719 411.273438 301.03125 428.757812 C 304.144531 446.230469 309.464844 464.625 317.34375 482.855469 C 325.375 501.023438 335.261719 517.417969 345.96875 531.574219 C 356.664062 545.757812 368.191406 557.644531 379.109375 567.539062 " fill-opacity="1" fill-rule="nonzero"/><path fill="#fffb71" d="M 582.429688 682.148438 C 566.261719 680.226562 545.875 672.035156 528.296875 656.847656 C 510.6875 641.703125 499.578125 622.753906 495.296875 607.046875 C 507.40625 618.082031 521.574219 631.835938 537.800781 645.828125 C 554.039062 659.816406 569.726562 671.796875 582.429688 682.148438 " fill-opacity="1" fill-rule="nonzero"/><path fill="#fffb71" d="M 371.007812 260.976562 C 359.148438 262.652344 346.414062 265.386719 333.238281 270.253906 C 320.089844 275.195312 308.671875 281.460938 298.605469 287.953125 C 299.902344 282.164062 303.03125 275.808594 308.101562 270.171875 C 313.140625 264.53125 320.082031 259.652344 328.15625 256.617188 C 336.246094 253.628906 344.6875 252.777344 352.1875 253.746094 C 359.710938 254.6875 366.238281 257.445312 371.007812 260.976562 " fill-opacity="1" fill-rule="nonzero"/><g clip-path="url(#5b61b6980d)"><path fill="#ffb41d" d="M 708.949219 384.410156 C 715.699219 394.613281 693.171875 443.003906 643.855469 475.390625 C 631.421875 483.53125 618.550781 490.589844 605.550781 496.601562 C 598.085938 481.941406 605.550781 463.875 615.886719 451.078125 C 626.355469 438.144531 639.9375 427.371094 646.863281 412.238281 C 627.066406 426.152344 604.976562 436.792969 581.734375 443.578125 C 571.4375 446.585938 558.363281 448.035156 551.742188 439.558594 C 545.394531 431.421875 549.34375 419.601562 554.003906 410.382812 C 567.316406 384.207031 584.808594 360.199219 605.6875 339.5625 C 594.371094 345.574219 582.648438 351.6875 569.878906 352.699219 C 557.113281 353.714844 542.925781 348.277344 537.625 336.625 C 533.265625 327.066406 535.730469 316.292969 539.683594 306.230469 C 550.457031 296.136719 560.390625 286.40625 568.765625 277.796875 C 603.828125 241.796875 645.777344 183.609375 672.089844 144.296875 C 698.40625 105.023438 711.476562 100.363281 718.671875 128.664062 C 725.835938 156.960938 707.726562 221.535156 688.917969 254.460938 C 670.097656 287.386719 653.210938 305.929688 653.210938 305.929688 C 653.210938 305.929688 688.917969 277.863281 700.769531 267.394531 C 716.410156 253.582031 728.804688 253.210938 728.804688 280.632812 C 728.804688 308.054688 716.410156 352.871094 674.359375 390.421875 C 675.640625 389.714844 702.359375 374.484375 708.949219 384.410156 " fill-opacity="1" fill-rule="nonzero"/></g><path fill="#ffb41d" d="M 244.933594 399.101562 C 236.050781 410.449219 218.960938 412.410156 205.414062 407.511719 C 193.253906 403.152344 183.257812 394.441406 173.796875 385.527344 C 206.394531 417.40625 229.0625 459.28125 237.910156 503.996094 C 238.214844 505.480469 238.449219 507.035156 238.585938 508.621094 C 190.25 487.652344 164.847656 458.066406 152.179688 439.359375 C 133.335938 411.496094 164.273438 415.277344 164.273438 415.277344 C 141.472656 398.597656 120.800781 380.328125 109.382812 364.691406 C 89.253906 337.164062 89.523438 315.890625 98.441406 312.277344 C 109.484375 307.816406 136.777344 325.886719 138.300781 326.898438 C 87.023438 280.835938 81.214844 231.664062 98.441406 229.132812 C 108.304688 227.679688 126.816406 244.09375 159.171875 273.035156 C 184.335938 295.523438 214.5 321.628906 242.335938 344.359375 C 244.734375 349.730469 246.792969 355.269531 248.414062 360.941406 C 252.027344 373.707031 253.109375 388.632812 244.933594 399.101562 " fill-opacity="1" fill-rule="nonzero"/></svg>